<?xml version="1.0" encoding="UTF-8"?>
<svg width="581px" height="469px" viewBox="0 0 581 469" version="1.1" xmlns="http://www.w3.org/2000/svg" xmlns:xlink="http://www.w3.org/1999/xlink">
    <!-- Generator: Sketch 52.1 (67048) - http://www.bohemiancoding.com/sketch -->
    <title>heroIllustration</title>
    <desc>Created with Sketch.</desc>
    <g id="Lander" stroke="none" stroke-width="1" fill="none" fill-rule="evenodd">
        <g id="1-1-1-Landing-page" transform="translate(-91.000000, -160.000000)">
            <g id="hero" transform="translate(83.000000, 157.000000)">
                <g id="heroIllustration" transform="translate(0.000000, 3.000000)">
                    <g id="Scene/Wireframe">
                        <path d="M570.414339,111.788552 C570.05929,111.531015 569.216947,111.439696 568.825074,111.362547 C567.196205,111.042257 565.518237,110.902805 563.857638,110.902805 C558.737113,110.910452 553.533442,111.411806 548.497915,112.279559 C545.300858,112.830396 541.435856,114.684212 538.255475,113.677456 C532.71482,111.923281 527.115107,112.009427 521.858398,114.51372 C517.052391,116.803662 513.403938,121.152776 511.274806,125.852094 C510.953571,126.561502 509.650337,129.172409 509.281393,130.932432 C509.123671,131.29231 508.972202,131.65466 508.835556,132.02241 C508.447851,133.066503 508.100214,134.129039 507.777127,135.193601 C507.639091,135.64772 507.291917,136.650427 507.704172,136.844311 C507.045491,138.056872 506.461618,139.306545 505.97525,140.596703 C504.560847,144.348871 503.014429,148.464739 502.517408,152.441604 C502.333283,153.914176 502.326335,155.395295 502.497258,156.87079 C502.581793,157.599991 502.546821,159.06649 503.042453,159.620925 C504.094397,160.797498 504.634497,159.150386 504.515916,158.365854 C503.610346,152.386498 505.358953,146.771518 507.431343,141.150914 C508.771401,137.516381 510.973257,134.191343 513.439837,131.180073 C515.436029,128.742581 517.577436,126.823087 520.313833,125.207015 C523.660043,123.23084 527.237625,121.633212 530.782319,120.030634 C533.113642,118.976194 535.447743,117.950095 537.844147,117.041631 C538.377066,116.839425 539.215472,116.321202 539.806293,116.319178 C541.055794,116.314679 542.826404,117.23439 544.033291,117.576498 C548.002978,118.702238 552.023386,120.143546 556.126013,120.718449 C558.757494,121.087548 561.222915,120.672115 563.683936,119.797614 C563.935457,119.708544 564.356976,119.478898 564.873452,119.15096 C566.700574,118.449875 568.429032,117.567502 569.933993,116.294662 C570.801116,115.561187 571.587874,114.613361 572.305382,113.745833 C572.520079,113.486497 572.615036,113.189148 572.618279,112.906645 C572.780865,112.821849 572.888792,112.722882 572.91311,112.607272 C573.09214,111.753464 571.459565,111.737719 570.414339,111.788552" id="Twisted-Leaf" fill="#5C63AB"></path>
                        <path d="M69.9658131,169.245756 C68.3835615,169.180566 66.8074368,169.146638 65.2305422,169.161913 C64.028559,169.173866 62.1775624,168.853875 61.1890771,169.545966 C60.1620537,170.26476 60.3004343,171.828584 60.5120893,172.93762 C61.6310766,178.802476 63.9822753,184.058999 68.6207158,188.372551 C75.7626239,195.014634 83.7798612,198.570279 93.166855,200.393293 C99.7607129,201.673885 105.749947,200.519752 110.381724,196.163251 C114.173627,202.702944 117.143689,209.889368 118.78453,217.086582 C119.594047,220.637953 119.942088,224.127875 119.976228,227.711496 C119.997702,230.006858 119.964182,232.294515 119.808132,234.571682 C119.74057,235.561223 119.285239,237.04455 119.722744,238.000224 C120.236071,239.122505 121.815709,239.29422 122.483395,238.38272 C123.039085,237.624106 122.866501,236.082266 122.948532,235.160782 C123.084327,233.630015 123.205321,232.097551 123.273284,230.556917 C123.383997,228.063259 123.438228,225.560201 123.321247,223.047641 C123.057602,217.402455 121.536537,211.683429 119.556229,206.253406 C115.75723,195.836066 109.90948,186.475977 101.109987,178.95852 C95.6994223,174.335968 89.6437436,172.304745 82.817988,171.067098 C78.5683394,170.296558 74.2454973,169.422085 69.9658131,169.245756" id="Fill-16" fill="#DDE3E9" transform="translate(91.874634, 204.033280) rotate(-39.000000) translate(-91.874634, -204.033280) "></path>
                        <path d="M109.823031,198.656682 C108.122487,188.59509 106.348902,178.587781 103.450103,168.67202 C101.741522,162.828775 99.6242055,157.090546 97.6767412,151.303297 C97.859771,152.026773 98.0253486,152.754156 98.1730769,153.482717 C97.5072661,151.75323 96.1965541,150.071757 95.4111863,148.343411 C94.5351957,146.415838 93.8124027,144.421215 93.1222495,142.439574 C91.7748766,138.572013 90.4943925,134.700643 88.9997125,130.870805 C87.3341235,126.603872 85.4454712,122.397644 83.6724189,118.163261 C82.1676112,114.569541 80.741729,110.802697 78.8335373,107.35408 C77.793615,105.474409 76.8476553,103.462367 75.8239051,101.547816 C75.4812261,100.907133 72.4736585,93.7829741 72.4941481,93.7838012 C72.9434849,93.801943 74.7575844,96.9879934 75.0556814,97.4573479 C75.9268406,98.8281305 76.6775961,100.248301 77.4358621,101.671487 C77.6699041,100.027427 78.0818171,98.4252689 78.7732819,96.9331304 C78.9866332,96.4724904 80.4773679,93.0721362 81.0095145,93.0936212 C81.2753035,93.1043521 79.0897229,99.5509423 78.8030069,100.11305 C78.5701702,100.569648 78.1222418,101.142334 77.9782877,101.632357 C77.7456493,102.42368 77.8742399,102.228693 78.123549,102.961084 C78.5804599,104.303477 79.5239898,105.638123 80.1366591,106.934185 C80.4720916,107.626382 81.327003,110.013134 82.1076572,111.098168 C84.1552301,114.798432 85.6864279,119.271239 87.2926993,123.237136 C87.5241008,121.329862 87.9848614,119.500473 88.6543469,117.723996 C88.813049,117.302108 90.0525925,113.378146 90.4569672,113.394471 C90.9119958,113.412843 89.4330763,119.717894 89.2190767,120.259067 C88.8216953,121.264261 88.1713946,122.226421 87.8487541,123.252805 C87.4947419,124.379368 88.242139,125.436477 88.7395021,126.623454 C90.5691676,130.990319 92.1968545,135.391887 93.7020299,139.846825 C101.250966,136.869276 102.379162,127.25444 102.585637,120.1388 C102.734188,115.010403 101.702714,109.740241 100.218791,104.699728 C98.2384471,97.9726452 95.1040065,91.4287098 91.8044485,85.1170744 C87.9597961,77.7627364 82.8163401,71.12521 76.702346,65.2421613 C73.5046628,62.1651661 69.8961107,59.4646158 66.2392958,56.9229653 C64.4530006,55.6812363 62.6274136,54.6367432 60.57177,53.9030307 C59.645032,53.5726694 58.6974522,53.3222972 57.7416828,53.1212332 C57.0154714,52.9684958 55.5172453,52.2559325 54.9262464,52.398344 C50.0986858,53.5205981 46.5195669,55.5669372 43.8430455,59.5316158 C41.309194,63.2845157 39.8281581,67.8337131 39.0859397,72.3251277 C38.2596882,77.326616 38.2202849,82.4013735 39.3182128,87.5128277 C40.1558331,91.4127003 41.4814779,95.256328 42.8072917,99.0628016 C47.5226177,112.601415 55.4114779,127.230535 68.8068629,135.093627 C73.1428242,137.639099 77.9024295,139.216786 82.7600098,140.147441 C83.9046032,140.366708 85.0477099,140.577506 86.201414,140.687287 C86.9792123,140.761547 89.5095787,140.361093 90.0845459,140.710615 C90.872827,141.189724 91.4201038,143.749316 91.7937038,144.684463 C94.6324019,151.79204 97.2048903,158.968072 99.5688434,166.198884 C102.083726,173.892024 104.149197,181.640798 105.926235,189.463369 C106.681946,192.790591 107.421498,196.111736 108.072376,199.452628 C108.224106,200.229903 108.200735,202.654432 109.000688,203.367825 C109.506559,203.818987 110.189048,203.669961 110.457479,203.153499 C110.92435,202.255541 109.997146,199.686848 109.823031,198.656682" id="Leaf" fill="#5C63AB" transform="translate(74.533100, 128.007882) rotate(-37.000000) translate(-74.533100, -128.007882) "></path>
                        <path d="M563.908421,142.520773 C561.638122,142.026063 559.131363,142.063925 556.818789,142.104735 C544.416463,142.272964 532.23759,148.129904 524.311288,157.488355 C517.563571,165.455406 515.708124,175.360714 514.375072,185.373716 C514.242905,186.367896 514.186229,187.355729 514.111667,188.351951 C514.09564,188.56575 514.071715,188.756425 514.046165,188.93599 C513.52191,189.403493 513.246891,189.948535 513.557216,190.547311 C512.402323,193.068246 511.425356,195.653116 510.58706,198.319154 C508.119788,206.166495 505.610009,214.163021 507.156061,222.414837 C507.517255,217.873799 508.277041,213.230282 509.185719,208.763836 C509.237982,208.507412 509.294425,208.253028 509.353192,207.999552 C509.359231,207.972799 509.364806,207.946046 509.370845,207.919519 C509.692552,206.551698 510.110655,205.224914 510.619114,203.918989 C510.624457,203.904705 510.629567,203.890649 510.635142,203.876592 C510.702271,203.704736 510.77358,203.533786 510.843961,203.362837 C510.9896,203.008922 511.139188,202.655688 511.297835,202.304267 C511.351492,202.184556 511.403058,202.063713 511.452533,201.941963 C512.192807,200.132259 512.505456,198.093111 513.168613,196.220604 C513.32726,195.794819 513.493107,195.370619 513.666853,194.948687 C513.677073,194.923975 513.687525,194.899262 513.697978,194.874549 C514.167647,193.73912 514.686559,192.61752 515.235203,191.50771 C515.53345,191.284161 515.692793,190.729596 515.949927,190.225591 C516.003118,190.126286 516.418899,189.464028 516.542703,189.082452 C516.865804,188.458964 517.187743,187.835249 517.513167,187.212894 C517.503411,187.216521 517.493656,187.220149 517.483899,187.223776 C517.809555,186.626134 518.13614,186.030985 518.46017,185.438331 C518.53148,185.308192 518.603486,185.177827 518.675261,185.047234 C518.791633,184.839329 518.908005,184.63165 519.024145,184.424425 C520.110515,182.485262 521.262389,180.584869 522.458627,178.708055 C522.885557,178.038314 523.905496,177.077916 524.101075,176.325874 C524.108276,176.297761 524.109902,176.271914 524.114315,176.244934 C526.710037,172.608522 529.698312,169.254379 533.281918,166.596731 C532.848717,167.06378 531.927962,168.648802 531.684533,168.962587 C530.939613,169.923439 530.130816,170.817862 529.318999,171.723168 C527.865162,173.344919 526.445704,175.018136 525.184426,176.787483 C522.877892,180.023276 520.887954,183.428657 519.006956,186.90251 C518.989071,186.922915 518.969559,186.942186 518.952602,186.963045 C518.007225,188.125454 517.412125,189.882332 516.731547,191.212063 C519.424827,189.967806 522.40288,189.157271 525.167005,188.05245 C527.923465,186.951028 530.604898,185.724456 533.193652,184.284084 C536.634406,182.36986 540.203612,180.208508 543.454594,177.762619 C547.180124,175.457525 550.310785,172.284761 553.074213,168.955331 C556.343778,165.016017 559.340182,161.04224 561.193307,156.259062 C562.10361,153.908623 562.819727,151.457745 563.244334,148.978301 C563.262916,148.870155 563.286609,148.752939 563.312392,148.631189 C563.746754,147.774855 564.135125,146.89925 564.461014,146.003467 C564.978532,144.58282 566.200786,143.020017 563.908421,142.520773" id="Fill-10" fill="#2F3676"></path>
                        <path d="M72.7050937,162.157913 C72.4288866,161.149222 72.2630372,160.106299 72.3397266,159.051005 C72.3592111,158.784258 72.5835128,156.8467 72.800644,156.8467 C73.3062971,156.8467 72.6098549,161.847272 72.7050937,162.157913 M63.9050303,166.522336 C63.9356724,166.534591 64.4924154,167.601962 64.675049,167.911872 C65.0630315,168.571121 65.4767771,169.214386 65.9018045,169.841844 C65.1043448,168.808039 64.3889027,167.810641 63.9050303,166.522336 M93.7735987,134.76618 C94.2472575,134.367659 92.9592263,134.323015 92.3890594,134.294574 C91.9260647,134.271476 91.433567,134.128064 90.9682621,134.071009 C89.9813111,133.950005 88.9998693,133.898811 88.0068755,133.967932 C85.8783455,134.115826 83.8072234,134.621561 81.836165,135.408087 C78.3964992,136.780846 74.9243079,138.55971 72.1879312,141.036846 C67.8370288,144.975513 64.3429764,150.366917 62.2812741,155.742808 C61.0042628,159.072145 60.3167917,162.41372 61.4775657,165.87647 C62.0575083,167.607071 62.975499,169.253898 64.3077852,170.554089 C64.6561415,170.893832 65.1152259,171.157041 65.4411886,171.513676 C65.9423956,172.061986 65.8275797,171.886341 65.5017954,172.668731 C65.1459742,173.522999 64.7933519,174.378302 64.4430401,175.23481 C63.5261157,177.477523 62.62341,179.745574 61.9576223,182.072748 C61.7382999,182.838591 61.5696313,183.616154 61.447351,184.402164 C61.3545744,184.996497 60.8160436,187.257654 61.2847254,187.86526 C62.0644398,188.876557 62.3966228,187.323671 62.4216831,186.792425 C62.4435443,186.327025 62.4842451,185.86059 62.5425415,185.397948 C62.689349,184.233068 62.954882,183.089562 63.2998617,181.966051 C63.6725677,180.751874 64.1293414,179.560448 64.5832713,178.372988 C65.006809,177.26568 65.4500749,176.165611 65.9020501,175.069162 C66.1530087,174.460005 66.406989,173.852054 66.6609694,173.244103 C66.7477032,173.036397 66.7923145,172.60254 67.0219455,172.780599 C67.5238634,171.482477 68.3410791,170.249683 69.0185973,169.031023 C69.8486104,167.538467 70.6955075,166.049014 71.6494005,164.626957 C72.337405,163.601352 73.0620217,162.597294 73.8548889,161.64443 C74.3182383,161.087673 74.8135801,160.564356 75.3398479,160.062758 C75.6290194,159.78731 76.6163257,158.605711 77.0146256,158.605711 C76.8434681,158.605711 76.0692635,160.106368 75.9485831,160.283565 C75.4663935,160.992697 74.9429697,161.668217 74.4087048,162.341151 C73.4173104,163.589976 72.4973646,164.884133 71.665219,166.237932 C71.9053357,166.380482 72.90384,165.72375 73.2015423,165.597058 C73.8692849,165.313164 74.55569,165.070466 75.2589792,164.883272 C76.4977779,164.553354 78.0118852,164.177587 79.2348655,164.177587 C78.8744231,164.177587 78.0378339,164.764336 77.6626394,164.923779 C77.0613688,165.17906 76.4448135,165.411933 75.8197266,165.606366 C75.2426276,165.785804 74.6550429,165.922666 74.0635471,166.048669 C73.4716966,166.174499 72.4022776,166.179326 71.8637462,166.49373 C71.8312214,166.51269 71.8649909,166.817097 71.7375561,166.898628 C71.6092327,166.980849 71.2416812,166.953959 71.2118221,166.976539 C70.7708665,167.306801 70.4625,168.263802 70.1971446,168.734546 C69.508607,169.955102 68.8378426,171.185138 68.1605029,172.411554 C67.9506,172.791459 67.6713817,173.051393 67.856046,173.359419 C68.0531516,173.687785 68.9842947,173.891527 69.3481143,174.011152 C70.6990625,174.455696 72.0679617,174.6029 73.4764955,174.36951 C76.1147633,173.932723 78.4046746,172.793699 80.4692207,171.181345 C88.3769157,165.005655 94.8627465,157.234503 96.8426919,147.367498 C97.6622186,143.282489 98.5451955,136.911502 93.7735987,134.76618" id="Leave-the-Leaf!" fill="#5C63AB" fill-rule="nonzero" transform="translate(79.187540, 161.068388) scale(-1, 1) rotate(58.000000) translate(-79.187540, -161.068388) "></path>
                        <g id="Background-Shape-2" opacity="0.6" transform="translate(30.836670, 233.669921)" fill="#DDE3E9">
                            <path d="M557.083534,113.012337 C565.207523,163.524046 368.186955,196.471105 198.606784,173.478147 C29.0266133,150.485189 -48.7687284,60.6950927 32.1521018,12.8514 C113.072932,-34.9922927 548.959544,62.5006275 557.083534,113.012337 Z" id="Background-Shape"></path>
                        </g>
                        <g id="Mobile3" transform="translate(128.198300, 32.125025)">
                            <rect id="Container" fill="#F2F2F2" x="0" y="0" width="105.829032" height="200.498274" rx="5.32224045"></rect>
                            <ellipse id="Touch" fill="#FFFFFF" cx="52.5817204" cy="177.925621" rx="9.98387097" ry="9.95852356"></ellipse>
                            <g id="Camera" transform="translate(42.597849, 10.622425)" fill="#FFFFFF">
                                <ellipse id="Lens" cx="1.3311828" cy="1.32780314" rx="1.3311828" ry="1.32780314"></ellipse>
                                <rect id="Sensor" x="5.99032258" y="0" width="13.9774194" height="2.65560628" rx="1.32780314"></rect>
                            </g>
                            <g id="Rows" transform="translate(9.318280, 18.589244)">
                                <g id="Row">
                                    <rect id="Background" fill="#FFFFFF" x="0" y="0" width="87.1924731" height="35.8506848" rx="2.66112022"></rect>
                                    <g id="Text" transform="translate(25.958065, 10.755205)" fill="#DDE3E9">
                                        <rect id="Name" x="0" y="0" width="48.588172" height="5.37760272" rx="1.99584017"></rect>
                                        <rect id="Name" x="0" y="8.9626712" width="32.6139785" height="5.37760272" rx="1.99584017"></rect>
                                    </g>
                                    <ellipse id="Avatar" fill="#C5CFD6" cx="13.9774194" cy="17.9253424" rx="7.98709677" ry="7.96681885"></ellipse>
                                </g>
                                <g id="Row" transform="translate(0.000000, 41.161897)">
                                    <rect id="Background" fill="#FFFFFF" x="0" y="0" width="87.1924731" height="27.883866" rx="2.66112022"></rect>
                                    <g id="Text" transform="translate(25.958065, 8.365160)" fill="#DDE3E9">
                                        <rect id="Name" x="0" y="0" width="48.588172" height="4.18257989" rx="1.99584017"></rect>
                                        <rect id="Name" x="0" y="6.97096649" width="32.6139785" height="4.18257989" rx="1.99584017"></rect>
                                    </g>
                                    <ellipse id="Avatar" fill="#C5CFD6" cx="13.9774194" cy="13.941933" rx="7.98709677" ry="7.96681885"></ellipse>
                                </g>
                                <g id="Row" transform="translate(0.000000, 74.356976)">
                                    <rect id="Background" fill="#FFFFFF" x="0" y="0" width="87.1924731" height="27.883866" rx="2.66112022"></rect>
                                    <g id="Text" transform="translate(25.958065, 8.365160)" fill="#DDE3E9">
                                        <rect id="Name" x="0" y="0" width="48.588172" height="4.18257989" rx="1.99584017"></rect>
                                        <rect id="Name" x="0" y="6.97096649" width="32.6139785" height="4.18257989" rx="1.99584017"></rect>
                                    </g>
                                    <ellipse id="Avatar" fill="#AFB9C5" cx="13.9774194" cy="13.941933" rx="7.98709677" ry="7.96681885"></ellipse>
                                </g>
                                <g id="Row" transform="translate(0.000000, 107.552054)">
                                    <rect id="Background" fill="#FFFFFF" x="0" y="0" width="87.1924731" height="27.883866" rx="2.66112022"></rect>
                                    <g id="Text" transform="translate(25.958065, 8.365160)" fill="#DDE3E9">
                                        <rect id="Name" x="0" y="0" width="48.588172" height="4.18257989" rx="1.99584017"></rect>
                                        <rect id="Name" x="0" y="6.97096649" width="32.6139785" height="4.18257989" rx="1.99584017"></rect>
                                    </g>
                                    <ellipse id="Avatar" fill="#C5CFD6" cx="13.9774194" cy="13.941933" rx="7.98709677" ry="7.96681885"></ellipse>
                                </g>
                            </g>
                        </g>
                        <g id="Mobile3" transform="translate(147.583199, 52.229527)">
                            <g id="Group" transform="translate(0.000000, 144.730542)" fill="#5C63AB">
                                <path d="M8.08018838,0 C7.19839566,0 6.3192914,0.0176612839 5.4386057,0.0633637292 C4.76729832,0.0983764501 3.74143944,-0.0404350448 3.17339795,0.376928981 C2.58321677,0.810405056 2.62385894,1.69780711 2.71605498,2.32447284 C3.20344469,5.63844236 4.39297922,8.57703209 6.88148164,10.9248984 C10.7130733,14.5401942 15.1055901,16.3771227 20.3033594,17.195119 C23.9545125,17.7697304 27.3251238,16.9718742 30.0128836,14.3820173 C31.9766751,18.0176081 33.4665189,22.0408176 34.2140501,26.1013636 C34.5828343,28.1049898 34.6954305,30.0844479 34.6305928,32.1246361 C34.5888436,33.4314161 34.5165733,34.7350978 34.3761444,36.0356809 C34.3152601,36.600842 34.0263371,37.4563298 34.2482085,37.9903513 C34.5085081,38.6174818 35.3863473,38.6782118 35.780434,38.1434157 C36.1084179,37.6983204 36.0481662,36.8242418 36.1155342,36.2975017 C36.2271815,35.4224935 36.3306056,34.5468656 36.4046154,33.6678295 C36.5248024,32.2450117 36.6136775,30.8181658 36.6071937,29.3899257 C36.5921703,26.1809944 35.8768998,22.9595142 34.8984831,19.9134075 C33.0215109,14.0695365 29.9760368,8.87587962 25.239564,4.80092568 C22.3272444,2.29519229 18.9941123,1.28044309 15.2124932,0.73573191 C12.8580941,0.396604271 10.4652668,0 8.08018838,0" id="Fill-16"></path>
                                <path d="M21.6791555,23.236555 C12.161932,23.236555 5.75207118,30.8874646 2.72139123,38.839301 C1.57894412,41.8366409 1.31117821,45.1279618 0.870876285,48.2752366 C0.729512093,49.2852213 0.781880745,50.8242815 0.370880331,51.7240422 C0.221723185,52.0503357 -0.120231653,52.1676564 0.0432645299,52.6121764 C0.142235051,52.881395 0.336435473,53.0462781 0.628047825,53.0997292 C1.22670258,53.2096513 2.07317328,52.5593293 2.58641725,52.3026431 C6.84355238,50.1730536 9.64059953,46.8802226 11.9223766,42.8514573 C13.3367978,40.3543535 14.7719483,37.762125 15.6121846,35.0207164 C16.1254286,33.3460653 16.4242105,31.5823292 16.5997078,29.8450166 C16.6687533,29.1608724 16.7356169,28.4604211 16.7315645,27.7720491 C16.7275122,27.0891128 16.4089363,26.7280912 16.1799792,26.1336362 C19.3556082,24.9346096 22.9400555,24.6078633 26.1568311,25.8503754 C29.1320253,26.9995746 31.6034828,29.2203632 32.9873556,32.0103912 C33.3469226,32.7356052 33.6241959,33.5006811 33.8261893,34.2810071 C33.9583578,34.7921146 33.964748,35.4552709 34.2097585,35.9173061 C34.8038933,37.0375149 36.0538832,36.2885952 35.9338717,35.2458453 C35.5992422,32.3369866 33.9309266,29.4166526 31.7986184,27.3942674 C29.1092698,24.8437126 25.4638817,23.236555 21.6791555,23.236555" id="Fill-18"></path>
                            </g>
                            <rect id="Container" fill="#DDE3E9" x="31.9483871" y="0" width="105.829032" height="200.498274" rx="5.32224045"></rect>
                            <ellipse id="Touch" fill="#FFFFFF" cx="84.5301075" cy="177.925621" rx="9.98387097" ry="9.95852356"></ellipse>
                            <g id="Camera" transform="translate(74.546237, 10.622425)" fill="#FFFFFF">
                                <ellipse id="Lens" cx="1.3311828" cy="1.32780314" rx="1.3311828" ry="1.32780314"></ellipse>
                                <rect id="Sensor" x="5.99032258" y="0" width="13.9774194" height="2.65560628" rx="1.32780314"></rect>
                            </g>
                            <g id="Rows" transform="translate(41.266667, 18.589244)">
                                <g id="Row">
                                    <rect id="Container" fill="#FFFFFF" x="0" y="0" width="87.1924731" height="35.8506848" rx="2.66112022"></rect>
                                    <g id="Text-Stuff" transform="translate(5.990323, 10.755205)" fill="#DDE3E9">
                                        <rect id="Label" x="0" y="0" width="48.588172" height="5.37760272" rx="1.99584017"></rect>
                                        <rect id="Label" x="0" y="8.9626712" width="32.6139785" height="5.37760272" rx="1.99584017"></rect>
                                    </g>
                                    <g id="Check" transform="translate(73.215054, 13.278031)">
                                        <ellipse id="Background" fill="#DDE3E9" cx="4.65913978" cy="4.64731099" rx="4.65913978" ry="4.64731099"></ellipse>
                                        <ellipse id="Indicator" fill="#F2F2F2" cx="4.65913978" cy="4.64731099" rx="1.99677419" ry="1.99170471"></ellipse>
                                    </g>
                                </g>
                                <g id="Row" transform="translate(0.000000, 41.161897)">
                                    <rect id="Background" fill="#FFFFFF" x="0" y="0" width="87.1924731" height="27.883866" rx="2.66112022"></rect>
                                    <g id="Text" transform="translate(25.958065, 8.365160)" fill="#DDE3E9">
                                        <rect id="Name" x="0" y="0" width="48.588172" height="4.18257989" rx="1.99584017"></rect>
                                        <rect id="Name" x="0" y="6.97096649" width="32.6139785" height="4.18257989" rx="1.99584017"></rect>
                                    </g>
                                    <ellipse id="Avatar" fill="#C5CFD6" cx="13.9774194" cy="13.941933" rx="7.98709677" ry="7.96681885"></ellipse>
                                </g>
                                <g id="Row" transform="translate(0.000000, 74.356976)">
                                    <rect id="Container" fill="#FFFFFF" x="0" y="0" width="87.1924731" height="27.883866" rx="2.66112022"></rect>
                                    <g id="Text-Stuff" transform="translate(5.990323, 8.365160)">
                                        <rect id="Label" fill="#DDE3E9" x="0" y="0" width="48.588172" height="4.18257989" rx="1.99584017"></rect>
                                        <rect id="Label" fill="#AFB9C5" x="0" y="6.97096649" width="32.6139785" height="4.18257989" rx="1.99584017"></rect>
                                    </g>
                                    <g id="Check" transform="translate(73.215054, 9.294622)">
                                        <ellipse id="Background" fill="#DDE3E9" cx="4.65913978" cy="4.64731099" rx="4.65913978" ry="4.64731099"></ellipse>
                                        <ellipse id="Indicator" fill="#F2F2F2" cx="4.65913978" cy="4.64731099" rx="1.99677419" ry="1.99170471"></ellipse>
                                    </g>
                                </g>
                                <g id="Row" transform="translate(0.000000, 107.552054)">
                                    <rect id="Background" fill="#FFFFFF" x="0" y="0" width="87.1924731" height="27.883866" rx="2.66112022"></rect>
                                    <g id="Text" transform="translate(25.958065, 8.365160)" fill="#DDE3E9">
                                        <rect id="Name" x="0" y="0" width="48.588172" height="4.18257989" rx="1.99584017"></rect>
                                        <rect id="Name" x="0" y="6.97096649" width="32.6139785" height="4.18257989" rx="1.99584017"></rect>
                                    </g>
                                    <ellipse id="Avatar" fill="#C5CFD6" cx="13.9774194" cy="13.941933" rx="7.98709677" ry="7.96681885"></ellipse>
                                </g>
                            </g>
                        </g>
                        <g id="Web" transform="translate(254.840555, 73.966446)">
                            <rect id="Container" fill="#F2F2F2" x="0" y="0" width="222.973118" height="229.709943" rx="5.32224045"></rect>
                            <rect id="Background" fill="#FFFFFF" x="165.732258" y="28.5477675" width="46.5913978" height="53.7760272" rx="5.32224045"></rect>
                            <g id="Profile-Info" transform="translate(172.388172, 38.506291)" fill="#DDE3E9">
                                <ellipse id="Avatar" cx="16.6397849" cy="10.6224251" rx="10.6494624" ry="10.6224251"></ellipse>
                                <rect id="Name" x="0" y="23.9004565" width="33.2795699" height="3.98340942" rx="1.99170471"></rect>
                                <rect id="Name" x="5.32473118" y="30.5394722" width="22.6301075" height="3.98340942" rx="1.99170471"></rect>
                            </g>
                            <path d="M5.32473118,0 L217.648387,0 C220.589155,-5.38838781e-16 222.973118,2.37791086 222.973118,5.31121256 L222.973118,17.9253424 L0,17.9253424 L0,5.31121256 C-3.60140191e-16,2.37791086 2.38396335,5.38838781e-16 5.32473118,0 Z" id="Header" fill="#C5CFD6"></path>
                            <g id="Buttons" transform="translate(5.990323, 6.639016)" fill="#F2F2F2">
                                <ellipse id="buttons" cx="2.66236559" cy="2.65560628" rx="2.66236559" ry="2.65560628"></ellipse>
                                <ellipse id="buttons" cx="10.6494624" cy="2.65560628" rx="2.66236559" ry="2.65560628"></ellipse>
                                <ellipse id="buttons" cx="18.6365591" cy="2.65560628" rx="2.66236559" ry="2.65560628"></ellipse>
                            </g>
                            <g id="Components" transform="translate(165.732258, 87.635007)">
                                <rect id="Background" fill="#FFFFFF" x="0" y="0" width="46.5913978" height="128.796905" rx="5.32224045"></rect>
                                <g id="Rows" transform="translate(11.980645, 11.950228)">
                                    <rect id="Data" fill="#DDE3E9" x="0" y="0" width="22.6301075" height="17.2614408" rx="2.66112022"></rect>
                                    <rect id="Data" fill="#AFB9C5" x="0" y="22.5726534" width="22.6301075" height="16.5975393" rx="2.66112022"></rect>
                                    <rect id="Data" fill="#DDE3E9" x="0" y="44.4814052" width="22.6301075" height="16.5975393" rx="2.66112022"></rect>
                                    <rect id="Data" fill="#DDE3E9" x="0" y="88.2989089" width="22.6301075" height="16.5975393" rx="2.66112022"></rect>
                                    <rect id="Data" fill="#C5CFD6" x="0" y="66.3901571" width="22.6301075" height="16.5975393" rx="2.66112022"></rect>
                                </g>
                            </g>
                            <g id="Rows" transform="translate(10.649462, 29.211669)">
                                <g id="Row">
                                    <rect id="Container" fill="#FFFFFF" x="0" y="0" width="149.758065" height="31.2033738" rx="2.66112022"></rect>
                                    <g id="Text-Stuff" transform="translate(5.990323, 9.361012)" fill="#DDE3E9">
                                        <rect id="Label" x="0" y="0" width="111.153763" height="4.68050607" rx="1.99584017"></rect>
                                        <rect id="Label" x="0" y="7.80084345" width="74.6100601" height="4.68050607" rx="1.99584017"></rect>
                                    </g>
                                    <g id="Check" transform="translate(129.094246, 10.954376)">
                                        <ellipse id="Background" fill="#DDE3E9" cx="4.65913978" cy="4.64731099" rx="4.65913978" ry="4.64731099"></ellipse>
                                        <ellipse id="Indicator" fill="#F2F2F2" cx="4.65913978" cy="4.64731099" rx="1.99677419" ry="1.99170471"></ellipse>
                                    </g>
                                </g>
                                <g id="Row" transform="translate(0.000000, 36.514586)">
                                    <rect id="Container" fill="#FFFFFF" x="0" y="0" width="149.758065" height="25.8921613" rx="2.66112022"></rect>
                                    <g id="Text-Stuff" transform="translate(5.990323, 7.767648)" fill="#DDE3E9">
                                        <rect id="Label" x="0" y="0" width="111.153763" height="3.88382419" rx="1.94191209"></rect>
                                        <rect id="Label" x="0" y="6.47304031" width="74.6100601" height="3.88382419" rx="1.94191209"></rect>
                                    </g>
                                    <g id="Check" transform="translate(129.094246, 8.298770)">
                                        <ellipse id="Background" fill="#DDE3E9" cx="4.65913978" cy="4.64731099" rx="4.65913978" ry="4.64731099"></ellipse>
                                        <ellipse id="Indicator" fill="#F2F2F2" cx="4.65913978" cy="4.64731099" rx="1.99677419" ry="1.99170471"></ellipse>
                                    </g>
                                </g>
                                <g id="Row" transform="translate(0.000000, 67.717960)">
                                    <rect id="Container" fill="#FFFFFF" x="0" y="0" width="149.758065" height="25.8921613" rx="2.66112022"></rect>
                                    <g id="Text-Stuff" transform="translate(5.990323, 7.767648)" fill="#DDE3E9">
                                        <rect id="Label" x="0" y="0" width="111.153763" height="3.88382419" rx="1.94191209"></rect>
                                        <rect id="Label" x="0" y="6.47304031" width="74.6100601" height="3.88382419" rx="1.94191209"></rect>
                                    </g>
                                    <g id="Check" transform="translate(129.094246, 8.298770)">
                                        <ellipse id="Background" fill="#DDE3E9" cx="4.65913978" cy="4.64731099" rx="4.65913978" ry="4.64731099"></ellipse>
                                        <ellipse id="Indicator" fill="#AFB9C5" cx="4.65913978" cy="4.64731099" rx="1.99677419" ry="1.99170471"></ellipse>
                                    </g>
                                </g>
                                <g id="Row" transform="translate(0.000000, 161.328082)">
                                    <rect id="Container" fill="#FFFFFF" x="0" y="0" width="149.758065" height="25.8921613" rx="2.66112022"></rect>
                                    <g id="Text-Stuff" transform="translate(5.990323, 7.767648)" fill="#DDE3E9">
                                        <rect id="Label" x="0" y="0" width="111.153763" height="3.88382419" rx="1.94191209"></rect>
                                        <rect id="Label" x="0" y="6.47304031" width="74.6100601" height="3.88382419" rx="1.94191209"></rect>
                                    </g>
                                    <g id="Check" transform="translate(129.094246, 8.298770)">
                                        <ellipse id="Background" fill="#DDE3E9" cx="4.65913978" cy="4.64731099" rx="4.65913978" ry="4.64731099"></ellipse>
                                        <ellipse id="Indicator" fill="#F2F2F2" cx="4.65913978" cy="4.64731099" rx="1.99677419" ry="1.99170471"></ellipse>
                                    </g>
                                </g>
                                <g id="Row" transform="translate(0.000000, 130.124708)">
                                    <rect id="Container" fill="#FFFFFF" x="0" y="0" width="149.758065" height="25.8921613" rx="2.66112022"></rect>
                                    <g id="Text-Stuff" transform="translate(5.990323, 7.767648)" fill="#DDE3E9">
                                        <rect id="Label" x="0" y="0" width="111.153763" height="3.88382419" rx="1.94191209"></rect>
                                        <rect id="Label" x="0" y="6.47304031" width="74.6100601" height="3.88382419" rx="1.94191209"></rect>
                                    </g>
                                    <g id="Check" transform="translate(129.094246, 8.298770)">
                                        <ellipse id="Background" fill="#DDE3E9" cx="4.65913978" cy="4.64731099" rx="4.65913978" ry="4.64731099"></ellipse>
                                        <ellipse id="Indicator" fill="#F2F2F2" cx="4.65913978" cy="4.64731099" rx="1.99677419" ry="1.99170471"></ellipse>
                                    </g>
                                </g>
                                <g id="Row" transform="translate(0.000000, 98.921334)">
                                    <rect id="Container" fill="#FFFFFF" x="0" y="0" width="149.758065" height="25.8921613" rx="2.66112022"></rect>
                                    <g id="Text-Stuff" transform="translate(5.990323, 7.767648)" fill="#DDE3E9">
                                        <rect id="Label" x="0" y="0" width="111.153763" height="3.88382419" rx="1.94191209"></rect>
                                        <rect id="Label" x="0" y="6.47304031" width="74.6100601" height="3.88382419" rx="1.94191209"></rect>
                                    </g>
                                    <g id="Check" transform="translate(129.094246, 8.298770)">
                                        <ellipse id="Background" fill="#DDE3E9" cx="4.65913978" cy="4.64731099" rx="4.65913978" ry="4.64731099"></ellipse>
                                        <ellipse id="Indicator" fill="#F2F2F2" cx="4.65913978" cy="4.64731099" rx="1.99677419" ry="1.99170471"></ellipse>
                                    </g>
                                </g>
                            </g>
                        </g>
                        <path d="M566.10285,198.451279 C563.477547,196.675578 559.986399,196.210251 556.844735,196.210251 C544.573984,196.210251 533.040048,200.75137 523.076084,207.517736 C517.616327,211.225284 512.732161,215.946699 508.420145,220.862518 C505.931243,223.70015 503.71195,226.769966 502.140748,230.184115 C501.080501,232.48851 500.35278,234.889509 499.859522,237.36607 C499.258371,240.384237 498.780842,243.463618 498.564811,246.532 C498.479775,247.740271 497.775893,254.151782 499.789969,254.260343 C499.778418,254.418401 499.775715,254.569047 499.788003,254.704149 C495.41479,261.524795 492.712807,269.518321 490.207193,277.096976 C488.027222,283.691892 486.084665,290.342524 484.823624,297.165082 C483.163455,306.147368 482.072978,315.264757 481.554406,324.376167 C481.443072,326.334317 481.366639,328.293423 481.300772,330.254203 C481.244982,331.926605 481.188456,333.599007 481.133403,335.271409 C481.071961,337.145629 480.741156,339.303443 481.040012,341.166663 C481.300035,342.789328 482.708045,342.543752 482.770224,340.928977 C482.84543,338.978958 482.833141,337.025112 482.918669,335.073657 C483.03246,332.483754 483.149692,329.89385 483.276755,327.304664 C484.161277,309.318332 487.479649,291.596466 493.603719,274.606545 C496.082053,267.731142 498.921913,261.222547 502.571827,254.862446 C505.780833,249.270396 509.640879,243.856731 513.586454,238.814656 C517.421432,233.914858 521.408541,229.128402 526.107397,224.977048 C529.920503,221.608332 534.114795,218.673618 538.426319,215.942873 C543.902543,212.474684 549.368198,209.090664 555.300077,206.428307 C558.383494,205.044522 561.525158,203.805644 564.632661,202.477813 C565.191785,202.238933 565.791215,202.007226 566.328958,201.730565 C568.122825,200.807803 567.532243,199.418039 566.10285,198.451279" id="Fill-1" fill="#8991DC"></path>
                        <path d="M525.593087,263.240878 C520.616268,263.240878 516.187675,263.885915 511.602083,265.858719 C507.643796,267.561365 504.036502,269.815386 500.534185,272.269372 C495.607772,275.720706 491.727406,279.737634 489.011243,285.059983 C487.388527,288.23958 486.198197,292.738819 487.287946,296.206855 C488.57169,300.29149 492.096436,303.698137 496.738677,302.978394 C499.609297,302.533774 502.240833,300.638384 504.422643,298.854487 C507.032676,296.720311 509.121997,294.154155 510.847143,291.304073 C513.661345,286.654973 515.315043,281.399203 517.705646,276.541109 C518.840021,274.235405 519.936244,271.913225 521.294903,269.721948 C521.967528,268.636804 522.683623,267.562043 523.704004,266.755633 C524.249919,266.324329 526.551733,265.577728 525.671472,264.609044 C538.577583,264.778089 550.011042,274.664904 552.488585,286.902787 C552.719344,288.043451 552.899698,289.193369 553.090224,290.341031 C553.210459,291.065738 553.161903,293.738198 553.811405,294.201099 C555.243825,295.222371 554.641723,292.119962 554.580218,291.67331 C554.421369,290.518878 554.251883,289.365349 554.074073,288.213851 C553.106641,281.950577 550.311169,276.128087 545.649273,271.661349 C540.318221,266.553636 533.125371,263.240878 525.593087,263.240878" id="Fill-20" fill="#5C63AB" transform="translate(520.812676, 283.157925) scale(-1, 1) translate(-520.812676, -283.157925) "></path>
                        <g id="Plant" transform="translate(41.266667, 252.282597)">
                            <path d="M6.61455148,23.7254322 C19.0388076,44.5158276 33.5091165,64.6466462 42.1990504,87.3778909 C41.8488677,84.6985693 41.477558,82.0220229 41.061953,79.3492853 C38.8570014,65.1811189 36.116605,51.1163371 33.2369149,37.0687973 C31.7704056,29.9164723 30.219396,22.7900674 28.6286067,15.6642718 C27.7730308,11.8370046 26.927945,8.00740541 26.0547397,4.18378269 C25.8432302,3.25703744 25.6615004,1.63945799 25.3967009,0 C33.8419369,27.6426559 41.985992,55.3061555 47.9430792,83.6133505 C48.7245697,87.3283684 49.3900675,91.0367845 49.9352013,94.7387495 C50.1216847,93.8942415 50.3051081,93.0495907 50.5058728,92.207397 C52.9162209,82.111244 56.5318209,72.0954483 60.8368258,62.6553494 C62.8948734,58.1408675 65.2588314,53.7252504 68.0421779,49.6107946 C69.7778206,47.0460727 73.8710067,43.9973434 75.4543435,41.3706944 C66.7951439,57.2123667 63.6684678,77.0335834 58.6686428,94.2563194 C57.4482824,98.4591589 56.220341,102.655176 55.0171753,106.858585 C62.5571232,91.7759307 74.2555169,79.3836974 90.5204301,74.0134507 C70.8323797,86.9889933 59.0232939,109.712411 51.0655921,132.952767 C51.0393708,133.228385 51.0081951,133.504005 50.9812453,133.780059 C53.3228992,129.34717 56.2725647,125.337634 60.2702951,122.529413 C68.8265381,116.517699 78.3182082,118.269014 86.6180724,123.425844 C80.1040758,119.295612 68.331386,123.056585 62.850467,127.254458 C58.9267233,130.259483 55.57344,134.290951 52.6614723,138.224042 C51.9637301,139.166832 51.0118028,140.266852 50.0061478,141.440568 C48.596178,150.569744 46.2984789,159.636353 43.0454335,168.630999 C43.5822711,166.049258 43.1941265,161.9202 43.342999,159.995842 C43.3592034,159.787497 43.3723478,159.579009 43.3884068,159.371246 C42.8939237,161.340595 42.4161854,163.28756 41.9562069,165.203131 C42.8705786,161.547783 43.367534,157.731905 43.7554728,153.876588 C43.8553878,152.219728 43.9528258,150.562869 44.0558009,148.906153 C44.0231642,145.76185 43.8933288,142.605123 43.6737303,139.443374 C42.8950734,136.370499 42.0232558,133.472027 41.3042724,131.061592 C38.7098013,122.363983 34.9063912,114.031452 30.2250682,106.258006 C25.9538725,99.1643313 20.8412532,92.738821 14.9390548,86.9276859 C11.7572364,83.7959334 8.42730867,80.8131989 5.14427817,77.7890264 C3.9571156,76.6957551 1.83518159,74.0076661 0,72.6064215 C13.3653997,79.9561664 27.1220862,87.9075349 36.8721717,99.7496216 C35.7290859,95.371216 34.4875314,91.0547696 33.1741875,86.8248164 C26.511269,65.3640721 18.0983191,43.1220841 6.61455148,23.7254322 Z" id="Fill-19" fill="#DDE3E9"></path>
                            <path d="M19.9677419,141.411035 C19.9677419,165.244111 21.8598929,184.564637 47.2569892,184.564637 C72.6540853,184.564637 74.5462366,165.244111 74.5462366,141.411035" id="Base" fill="#C5CFD6"></path>
                        </g>
                        <g id="Graph" transform="translate(441.247521, 0.171834)">
                            <rect id="Value" fill="#DDE3E9" x="0" y="21.2448503" width="3.99354839" height="16.5975393" rx="1.99584017"></rect>
                            <rect id="Value" fill="#DDE3E9" x="9.31827957" y="10.6224251" width="3.99354839" height="27.2199644" rx="1.99584017"></rect>
                            <rect id="Value" fill="#DDE3E9" x="18.6365591" y="5.31121256" width="3.99354839" height="32.531177" rx="1.99584017"></rect>
                            <rect id="Value" fill="#DDE3E9" x="27.9548387" y="10.6224251" width="3.99354839" height="27.2199644" rx="1.99584017"></rect>
                            <rect id="Value" fill="#C5CFD6" x="37.2731183" y="0" width="3.99354839" height="37.8423895" rx="1.99584017"></rect>
                        </g>
                        <g id="Pie-Chart" transform="translate(38.413618, 233.669921) scale(-1, 1) translate(-38.413618, -233.669921) translate(25.101791, 220.391890)">
                            <path d="M26.6236559,13.4482478 C26.6236559,6.05305634 20.6320022,0 13.311828,0 L13.311828,13.4482478 L22.4091312,23.236555 C24.9969505,20.8434393 26.6236559,17.3327742 26.6236559,13.4482478 Z" id="Value" fill="#F2F2F2"></path>
                            <path d="M13.6640722,13.2780314 L0.220976344,13.2780314 C0.220976344,16.7442615 1.6385508,19.992068 3.87951488,22.3522381 C6.3443065,24.9334874 9.85429883,26.5560628 13.6640722,26.5560628 C17.1733924,26.5560628 20.3856201,25.1558944 22.8510839,22.9424466 L13.6640722,13.2780314 Z" id="Value" fill="#AFB9C5"></path>
                            <path d="M0,13.2780314 C0,5.97644194 5.99165376,0 13.311828,0 L13.311828,13.2780314 L0,13.2780314 Z M19.9677419,0 L14.6430108,11.9502283 L26.6236559,6.63901571 C25.4389032,3.54125098 22.7785344,1.1817448 19.9677419,0 Z" id="Value" fill="#C5CFD6" fill-rule="nonzero"></path>
                        </g>
                        <g id="Chart" transform="translate(542.939093, 215.299374)">
                            <path d="M25.1370394,24.6831965 C23.858053,26.0375557 22.0462392,26.8880136 20.0311096,26.8880136 C16.1590961,26.8880136 13.0202213,23.7670123 13.0202213,19.9170471 C13.0202213,16.0670819 16.1590961,12.9460806 20.0311096,12.9460806 L20.0311096,0 C9.01600243,0 0,8.96466291 0,19.9170471 C0,30.8694313 9.01600243,39.8340942 20.0311096,39.8340942 C25.8170956,39.8340942 31.0462168,37.4002311 34.6107527,33.5283571 L25.1370394,24.6831965 Z" id="Value" fill="#F2F2F2"></path>
                            <path d="M19.9677419,0 L19.9677419,12.9460806 C23.8275065,12.9460806 26.9564516,16.0670819 26.9564516,19.9170471 L39.9354839,19.9170471 C39.9354839,8.96466291 30.9480032,0 19.9677419,0 Z" id="Value" fill="#AFB9C5"></path>
                            <path d="M26.688194,19.9170471 C26.688194,22.1789487 25.6202586,24.189528 23.9612903,25.4876892 L32.1226399,35.8506848 C36.8733219,32.1406392 39.9354839,26.3896124 39.9354839,19.9170471 L26.688194,19.9170471 Z" id="Value" fill="#C5CFD6"></path>
                        </g>
                        <g id="Chart" transform="translate(388.482313, 8.076167)">
                            <path d="M19.3361842,18.923784 C18.3523485,19.962126 16.9586456,20.6141438 15.4085458,20.6141438 C12.4300739,20.6141438 10.0155548,18.2213761 10.0155548,15.2697361 C10.0155548,12.3180961 12.4300739,9.92532848 15.4085458,9.92532848 L15.4085458,0 C6.93538649,0 0,6.87290823 0,15.2697361 C0,23.666564 6.93538649,30.5394722 15.4085458,30.5394722 C19.8593043,30.5394722 23.8817052,28.6735105 26.6236559,25.7050738 L19.3361842,18.923784 Z" id="Value" fill="#F2F2F2"></path>
                            <path d="M15.3086022,0 L15.3086022,9.92532848 C18.2677549,9.92532848 20.6666129,12.3180961 20.6666129,15.2697361 L30.6172043,15.2697361 C30.6172043,6.87290823 23.7268025,0 15.3086022,0 Z" id="Value" fill="#AFB9C5"></path>
                            <path d="M20.6817369,15.2697361 C20.6817369,16.9661624 19.8807853,18.4740968 18.6365591,19.4477177 L24.7575713,27.2199644 C28.3205828,24.4374302 30.6172043,20.1241601 30.6172043,15.2697361 L20.6817369,15.2697361 Z" id="Value" fill="#C5CFD6"></path>
                        </g>
                        <g id="Image" transform="translate(70.360206, 4.366129)">
                            <path d="M31.9530462,34.5137848 C31.9503839,34.5204238 31.9477215,34.5270628 31.943728,34.5350296 C31.9477215,34.5283906 31.9530462,34.5018345 31.9530462,34.5137848" id="Fill-35" fill="#C5CFD6"></path>
                            <path d="M31.9468472,34.5238743 C31.9468472,34.5252021 31.945516,34.5278577 31.945516,34.5305134 C31.945516,34.5238743 31.9574966,34.5039573 31.9468472,34.5238743" id="Fill-37" fill="#C5CFD6"></path>
                            <path d="M31.993077,34.4115465 C31.9837587,34.4381026 31.971778,34.4633308 31.9611286,34.4898869 C31.9664533,34.4766089 31.971778,34.4659864 31.9771028,34.4527084 C31.8386598,34.7979372 31.9265178,34.5735385 31.993077,34.4115465" id="Fill-39" fill="#C5CFD6"></path>
                            <path d="M31.9632798,34.4915123 C31.957955,34.5034626 31.9526303,34.5167406 31.9473056,34.5286908 C31.9087013,34.6030478 31.9632798,34.4915123 31.9632798,34.4915123" id="Fill-41" fill="#C5CFD6"></path>
                            <polygon id="Fill-43" fill="#C5CFD6" points="31.9483871 34.5235456 31.9483871 34.5235456 31.9483871 34.5222178"></polygon>
                            <path d="M31.9477215,34.5242095 C31.9477215,34.5228817 31.9477215,34.5228817 31.9490527,34.5215539 C31.9477215,34.5228817 31.9477215,34.5228817 31.9477215,34.5242095" id="Fill-45" fill="#C5CFD6"></path>
                            <path d="M31.9414062,34.5337371 C31.9334191,34.5496707 31.9786793,34.4726581 31.9414062,34.5337371" id="Fill-47" fill="#C5CFD6"></path>
                            <path d="M31.9470559,34.5242095 L31.9497183,34.5215539 C31.9483871,34.5228817 31.9483871,34.5242095 31.9470559,34.5242095" id="Fill-49" fill="#C5CFD6"></path>
                            <rect id="Photo-Background" fill="#DDE3E9" x="0" y="0" width="63.2311828" height="41.8257989" rx="2.66112022"></rect>
                            <g id="icons8-night_landscape" transform="translate(5.324731, 11.950228)">
                                <polygon id="Mountains" fill="#AFB9C5" points="18.6365591 0 0 29.8755707 37.2731183 29.8755707"></polygon>
                                <polygon id="Mountains" fill="#C5CFD6" points="36.9403226 7.96681885 20.6333333 29.8755707 53.2473118 29.8755707"></polygon>
                            </g>
                            <ellipse id="Sun" fill="#FFFFFF" cx="49.2537634" cy="13.941933" rx="5.99032258" ry="5.97511414"></ellipse>
                        </g>
                        <g id="Image" transform="translate(503.975013, 348.110930) scale(-1, 1) translate(-503.975013, -348.110930) translate(456.718024, 316.907556)">
                            <path d="M47.2616484,51.111324 C47.258986,51.117963 47.2563237,51.1246021 47.2523301,51.1325689 C47.2563237,51.1259299 47.2616484,51.0993738 47.2616484,51.111324" id="Fill-35" fill="#C5CFD6"></path>
                            <path d="M47.2554493,51.1214136 C47.2554493,51.1227414 47.2541182,51.125397 47.2541182,51.1280526 C47.2541182,51.1214136 47.2660988,51.1014966 47.2554493,51.1214136" id="Fill-37" fill="#C5CFD6"></path>
                            <path d="M47.3016791,51.0090858 C47.2923608,51.0356418 47.2803802,51.0608701 47.2697307,51.0874262 C47.2750555,51.0741481 47.2803802,51.0635257 47.2857049,51.0502477 C47.1472619,51.3954765 47.23512,51.1710778 47.3016791,51.0090858" id="Fill-39" fill="#C5CFD6"></path>
                            <path d="M47.2718819,51.0890516 C47.2665572,51.1010018 47.2612325,51.1142798 47.2559077,51.1262301 C47.2173034,51.2005871 47.2718819,51.0890516 47.2718819,51.0890516" id="Fill-41" fill="#C5CFD6"></path>
                            <polygon id="Fill-43" fill="#C5CFD6" points="47.2569892 51.1210848 47.2569892 51.1210848 47.2569892 51.119757"></polygon>
                            <path d="M47.2563237,51.1217487 C47.2563237,51.1204209 47.2563237,51.1204209 47.2576548,51.1190931 C47.2563237,51.1204209 47.2563237,51.1204209 47.2563237,51.1217487" id="Fill-45" fill="#C5CFD6"></path>
                            <path d="M47.2500083,51.1312763 C47.2420212,51.14721 47.2872814,51.0701974 47.2500083,51.1312763" id="Fill-47" fill="#C5CFD6"></path>
                            <path d="M47.2556581,51.1217487 L47.2583204,51.1190931 C47.2569892,51.1204209 47.2569892,51.1217487 47.2556581,51.1217487" id="Fill-49" fill="#C5CFD6"></path>
                            <rect id="Photo-Background" fill="#DDE3E9" x="0" y="0" width="94.5139785" height="62.4067476" rx="2.66112022"></rect>
                            <g id="icons8-night_landscape" transform="translate(7.321505, 17.925342)">
                                <polygon id="Mountains" fill="#AFB9C5" points="27.7723294 0 0.446474484 44.4814052 55.0981842 44.4814052"></polygon>
                                <polygon id="Mountains" fill="#C5CFD6" points="55.9468132 11.9146621 31.7891734 44.4814052 80.1044532 44.4814052"></polygon>
                            </g>
                            <ellipse id="Sun" fill="#FFFFFF" cx="73.5478495" cy="20.9128995" rx="8.98548387" ry="8.9626712"></ellipse>
                        </g>
                    </g>
                    <g id="Group-2" transform="translate(130.851613, 168.630999)">
                        <g id="Group" transform="translate(0.000000, 48.464815)">
                            <g id="Head/Front/Short-Beard" transform="translate(59.000000, 0.000000)">
                                <g id="Head" transform="translate(0.499194, 1.908717)" fill="#D4A181">
                                    <path d="M6.18671073,25.7603055 C2.73635266,21.7205675 0.40107815,16.769813 0.791303895,11.2223502 C1.91565291,-4.76143445 24.2222667,-1.24520546 28.5613649,6.82203644 C32.9004631,14.8892784 32.3848654,35.3525066 26.7769676,36.7943477 C24.5405457,37.369352 19.7763021,35.9608218 14.9274136,33.0455973 L17.9709677,54.5229165 L0,54.5229165 L6.18671073,25.7603055 Z" id="Path"></path>
                                </g>
                                <path d="M16.3251057,14.8963215 C17.0130073,24.4543952 18.8326892,29.2334321 21.7841511,29.2334321 C26.2116033,29.2334321 29.9679818,26.4298717 31.9106414,26.4298717 C33.326775,26.4298717 33.0105958,28.1975316 32.0719089,29.5081259 C31.2974613,30.5894083 27.5259696,31.6316353 27.5259696,33.3079862 C27.5259696,34.9843371 30.505761,33.6874368 30.505761,34.6816478 C30.505761,36.326194 31.029455,39.418235 28.1679125,39.418235 C25.2719362,39.418235 16.9686588,38.365565 15.545702,34.0783372 C14.6273673,31.3114859 14.0335979,25.5780522 13.7643938,16.8780363 C13.5887146,16.8572136 13.4099259,16.8465024 13.228629,16.8465024 C10.7473562,16.8465024 8.7358871,18.8528646 8.7358871,21.327838 C8.7358871,22.5842687 9.25426851,23.7199324 10.0893369,24.5336465 C9.04977727,25.9972524 7.88472922,27.5261847 6.54970855,29.1038442 C1.53432528,26.1024577 -2.18737428,17.3162743 2.71597692,8.87590797 C4.07127861,4.74110376 7.13949202,2.5325494 10.7631259,1.50704674 C13.6984562,0.282306151 16.7456067,0.144215554 19.3178357,0.878436517 C24.3601168,1.30983411 28.8626322,2.84345883 30.1386814,3.75424076 C30.1386814,8.51582734 29.2137077,9.92857609 21.3131726,9.80404754 C19.3718831,10.8266766 17.8795176,12.5876424 16.3251057,14.8963215 Z" id="Hair" fill="#191847"></path>
                            </g>
                            <g id="Bottom/Sitting/Baggy-Pants" transform="translate(0.000000, 119.060718)">
                                <g id="Objects/Seat/Cube-2" transform="translate(0.155304, 31.383933)" fill="#C5CFD6" fill-rule="nonzero">
                                    <path d="M10.8990591,0 L99.6723118,0 C105.553847,-1.07767756e-15 110.321774,4.75582172 110.321774,10.6224251 L110.321774,82.3237948 C110.321774,88.1903982 105.553847,92.9462199 99.6723118,92.9462199 L10.8990591,92.9462199 C5.01752348,92.9462199 0.249596774,88.1903982 0.249596774,82.3237948 L0.249596774,10.6224251 C0.249596774,4.75582172 5.01752348,1.07767756e-15 10.8990591,0 Z M23.8780914,20.9878561 C22.4077075,20.9878561 21.2157258,22.1768115 21.2157258,23.6434624 L21.2157258,69.3027577 C21.2157258,70.7694085 22.4077075,71.9583639 23.8780914,71.9583639 L86.6932796,71.9583639 C88.1636635,71.9583639 89.3556452,70.7694085 89.3556452,69.3027577 L89.3556452,23.6434624 C89.3556452,22.1768115 88.1636635,20.9878561 86.6932796,20.9878561 L23.8780914,20.9878561 Z" id="Seat"></path>
                                </g>
                                <path d="M184.405582,120.305076 C169.664401,102.314741 159.690166,88.9775106 154.482877,80.2933852 C145.566733,65.4240555 138.269295,52.1930978 135.966406,47.1389316 C130.474871,35.0866239 148.608808,29.4430743 152.71293,35.0646704 C158.92468,43.5731792 172.190777,70.3470609 192.511218,115.386316 L184.405582,120.305076 Z" id="LegLower" fill="#D4A181"></path>
                                <path d="M154.198225,115.07442 L126.764037,46.0572492 C120.89641,33.475879 149.23227,25.2058386 153.544533,31.0609562 C163.334703,44.3538856 186.603675,96.7925642 189.520495,100.752972 L154.198225,115.07442 Z" id="LegLower" fill="#2F3676"></path>
                                <g id="Lower-Leg" transform="translate(112.499342, 78.995070) rotate(39.000000) translate(-112.499342, -78.995070) translate(100.518697, 37.501222)" fill="#B28B67">
                                    <path d="M1.59991671,78.5206778 C0.847273775,69.1050378 -0.551043511,36.5100549 0.848029774,21.4230447 C1.25006733,17.087643 1.67364088,12.8960051 2.10050116,8.96387692 C3.36928094,-2.72379946 25.0535976,-2.35434461 23.331591,8.7495337 C19.043114,36.4025792 11.4949055,75.156721 10.9538971,78.5052972 C10.1956507,83.1984698 2.07292933,84.4381135 1.59991671,78.5206778 Z" id="LegLower"></path>
                                </g>
                                <g id="Accessories/Shoe/Flat-Sneaker" transform="translate(98.773954, 110.557269) rotate(30.000000) translate(-98.773954, -110.557269) translate(76.809438, 102.590450)" fill="#E4E4E4">
                                    <path d="M1.41863425,4.85182382 C0.531071869,7.17213936 0.0872906745,8.90068072 0.0872906745,10.037448 C0.0872906745,11.3843031 0.313467144,13.3496997 0.765820084,15.9336377 C2.34080312,15.9336377 16.4954409,15.9336377 43.2297334,15.9336377 C44.33322,12.3145912 43.6962235,10.3607844 41.318744,10.0722174 C38.9412646,9.78365043 36.966252,9.52309747 35.3937063,9.29055871 L15.5729632,0.524707104 C15.2369174,0.376088621 14.8437128,0.527336951 14.6947161,0.862529568 C14.6925221,0.867465278 14.6903885,0.872427477 14.688316,0.877415104 L13.3856072,4.01231032 C11.184683,5.03103528 9.39620362,5.54039776 8.02016901,5.54039776 C6.87085967,5.54039776 5.27138872,5.06702592 3.22175616,4.12028236 L3.22176145,4.12027101 C2.55462372,3.81211412 1.76335538,4.10175253 1.45441416,4.76719655 C1.4415127,4.79498561 1.42957893,4.82321158 1.41863425,4.85182382 Z" id="shoe"></path>
                                </g>
                                <g id="Accessories/Shoe/Flat-Sneaker" transform="translate(176.727828, 112.577151)" fill="#E4E4E4">
                                    <path d="M1.41863425,4.85182382 C0.531071869,7.17213936 0.0872906745,8.90068072 0.0872906745,10.037448 C0.0872906745,11.3843031 0.313467144,13.3496997 0.765820084,15.9336377 C2.34080312,15.9336377 16.4954409,15.9336377 43.2297334,15.9336377 C44.33322,12.3145912 43.6962235,10.3607844 41.318744,10.0722174 C38.9412646,9.78365043 36.966252,9.52309747 35.3937063,9.29055871 L15.5729632,0.524707104 C15.2369174,0.376088621 14.8437128,0.527336951 14.6947161,0.862529568 C14.6925221,0.867465278 14.6903885,0.872427477 14.688316,0.877415104 L13.3856072,4.01231032 C11.184683,5.03103528 9.39620362,5.54039776 8.02016901,5.54039776 C6.87085967,5.54039776 5.27138872,5.06702592 3.22175616,4.12028236 L3.22176145,4.12027101 C2.55462372,3.81211412 1.76335538,4.10175253 1.45441416,4.76719655 C1.4415127,4.79498561 1.42957893,4.82321158 1.41863425,4.85182382 Z" id="shoe"></path>
                                </g>
                                <path d="M116.892325,49.5044569 C94.0904334,45.7919491 78.8174171,43.2533505 71.0732758,41.8886613 C48.999421,37.9987591 42.5624972,26.1273711 46.3683502,0.225836284 L87.0390523,0.225836284 C92.4211661,1.77916532 114.909725,11.3860015 154.50473,29.0463449 C161.628653,32.5806569 160.301944,43.0015909 158.999818,46.4348277 C158.946712,46.5748482 146.937144,67.141452 122.971113,108.134639 L89.7007643,86.9525411 L116.954807,52.0004774 C117.67456,50.5516604 117.653733,49.7196536 116.892325,49.5044569 Z" id="Leg-and-Butt" fill="#5C63AB"></path>
                            </g>
                            <g id="Body/Pointing-Forward" transform="translate(32.924588, 39.952259)">
                                <path d="M61.5457683,31.8354963 L87.5361173,17.6621341 C91.858153,12.5518568 96.1165622,8.58301053 100.311345,5.75559517 C101.593135,5.22277866 103.834662,4.90028005 101.738409,8.60486185 C99.6421545,12.3094437 97.6045417,16.2999772 98.6725004,17.4412786 C99.7404591,18.5825801 102.40351,16.9882323 103.677568,18.8845144 C104.52694,20.1487024 99.9773291,22.1457637 90.0287338,24.8756981 L71.1435776,42.0924419 L61.5457683,31.8354963 Z M102.251478,43.7939523 L113.667927,37.5494327 C115.269817,31.4803707 117.18468,28.4268205 119.412518,28.3887818 C121.12396,27.5959023 118.143495,35.2647289 121.38785,34.5996896 C124.632204,33.9346503 132.550744,28.0707689 133.915149,29.2613584 C135.933697,31.0227589 134.133835,36.4312789 132.013171,39.1217279 C128.049652,44.1501739 124.768029,45.8697507 116.65699,48.1215469 C112.416119,49.2989021 107.830988,51.6588095 102.901596,55.2012687 L102.251478,43.7939523 Z" id="Skin" fill="#D4A181" fill-rule="nonzero"></path>
                                <path d="M49.7276548,25.896016 C58.734048,27.2255392 71.0236119,27.2337371 85.0977708,21.1742643 L88.3550932,33.1261281 C78.1493497,40.4483685 64.6063348,45.647577 53.8048116,43.6257959 C45.2926152,42.032521 42.5537633,31.0430154 49.7276548,25.896016 Z" id="Sleeve" fill="#191847" transform="translate(66.983236, 32.619877) rotate(-9.000000) translate(-66.983236, -32.619877) "></path>
                                <path d="M61.1460853,46.7921348 C70.8105649,49.1919892 87.0172988,46.3618978 109.766288,38.3018605 C115.408978,49.9251814 118.017452,58.2117178 117.59171,63.1614697 C98.0764287,73.3114916 81.3501474,77.8368684 67.5699268,78.1356122 C68.0078434,86.2769834 67.0125959,94.0236857 63.6692577,101.102101 C56.7959223,115.654123 16.5487254,102.177328 3.01638434,104.829891 C-5.45796554,77.4271735 10.9274466,66.2908201 10.94063,48.7569644 C10.955068,29.555524 26.4397603,-1.42108547e-13 28.7180231,-1.42108547e-13 L49.4945198,4.97050855e-14 C50.6408812,14.6643929 56.4108351,30.8258246 61.1460853,46.7921348 Z" id="Clothes" fill="#2F3676"></path>
                            </g>
                        </g>
                        <g id="Head/Front/Short-1" transform="translate(345.875269, 29.211669) scale(-1, 1) translate(-345.875269, -29.211669) translate(328.569892, 0.000000)">
                            <g id="Head" transform="translate(0.499194, 3.236520)" fill="#BA8B72">
                                <path d="M6.18671073,25.7603055 C2.73635266,21.7205675 0.40107815,16.769813 0.791303895,11.2223502 C1.91565291,-4.76143445 24.2222667,-1.24520546 28.5613649,6.82203644 C32.9004631,14.8892784 32.3848654,35.3525066 26.7769676,36.7943477 C24.5405457,37.369352 19.7763021,35.9608218 14.9274136,33.0455973 L17.9709677,54.5229165 L0,54.5229165 L6.18671073,25.7603055 Z" id="Path"></path>
                            </g>
                            <path d="M21.1348739,11.2285412 C18.6961609,12.589233 16.960607,15.1389175 14.8714208,18.483346 C14.36259,18.2838591 13.8084359,18.1743055 13.228629,18.1743055 C10.7473562,18.1743055 8.7358871,20.1806678 8.7358871,22.6556411 C8.7358871,23.9120718 9.25426851,25.0477356 10.0893369,25.8614496 C9.04977727,27.3250555 7.88472922,28.8539878 6.54970855,30.4316473 C1.56774589,27.4502609 -2.1377169,18.760916 2.61910155,10.3724854 C6.71182851,-6.43014909 29.9029568,3.99906323 34.3647368,1.16523004 C35.3399966,7.26261586 32.1943251,12.1790695 21.1348739,11.2285412 Z" id="Hair" fill="#191847"></path>
                        </g>
                        <g id="Bottom/Standing/Skinny-Jeans" transform="translate(350.201613, 210.124847) scale(-1, 1) translate(-350.201613, -210.124847) translate(283.309677, 120.830086)">
                            <polygon id="Leg" fill="#191847" points="42.4558569 9.9475983e-14 69.563003 95.0685897 89.3406574 165.139266 103.765699 165.139266 82.7491141 9.9475983e-14"></polygon>
                            <path d="M35.2065974,0 C34.5796117,48.9994537 32.4416023,75.7250872 31.7832931,80.1769004 C31.124984,84.6287136 21.1710021,112.949503 1.92134884,165.139266 L16.8647149,165.139266 C41.3709961,115.072105 55.0510299,86.7513172 57.9048149,80.1769004 C60.7585999,73.6024843 69.5656594,46.8768507 82.830631,0 L35.2065974,0 Z" id="Leg" fill="#2F3676"></path>
                            <g id="Accessories/Shoe/Flat-Pointy" transform="translate(0.585720, 162.641995)" fill="#191847">
                                <path d="M0,15.9336377 L0.752882072,0.248963089 L16.5634056,0.248963089 C24.0603066,5.47718796 33.8477736,9.70956047 45.9258065,12.9460806 L45.9258065,15.9336377 L17.3162877,15.9336377 L7.52882072,14.4398592 L7.52882072,15.9336377 L0,15.9336377 Z" id="Shoe"></path>
                            </g>
                            <g id="Accessories/Shoe/Flat-Pointy" transform="translate(87.316717, 162.641995)" fill="#191847">
                                <path d="M0,15.9336377 L0.752882072,0.248963089 L16.5634056,0.248963089 C24.0603066,5.47718796 33.8477736,9.70956047 45.9258065,12.9460806 L45.9258065,15.9336377 L17.3162877,15.9336377 L7.52882072,14.4398592 L7.52882072,15.9336377 L0,15.9336377 Z" id="Shoe"></path>
                            </g>
                        </g>
                        <g id="Body/Jacket-2" transform="translate(355.512252, 104.396015) scale(-1, 1) rotate(8.000000) translate(-355.512252, -104.396015) translate(260.332682, 41.989268)">
                            <path d="M146.929301,57.8680339 L174.061394,46.0040351 C178.814305,41.2882681 183.403917,37.7040671 187.830231,35.2514321 C189.153782,34.8318763 191.415009,34.7051235 189.002458,38.2136964 C186.589905,41.7222693 184.21074,45.5207945 185.174733,46.7504299 C186.138725,47.9800653 188.931201,46.6228827 190.034423,48.622511 C190.769904,49.9555966 186.062795,51.5502454 175.913096,53.4064574 L155.592761,68.918842 L146.929301,57.8680339 Z M37.2377209,61.1357489 L52.5817204,64.1670715 C37.1507112,92.8003826 28.875338,107.976055 27.7556012,109.694086 C25.2361932,113.559659 27.5868518,120.644122 28.4551753,124.37485 C23.0078007,125.637408 25.1560779,117.473836 18.2625306,119.178316 C11.9704202,120.734086 6.63546941,124.726746 0.768334216,119.342007 C0.0470044239,118.679985 -0.481043091,116.610691 1.97833557,115.54936 C8.10554469,112.905199 17.1579801,107.954059 18.6258333,106.031827 C20.6275133,103.41052 26.8314758,88.4451611 37.2377209,61.1357489 Z" id="Skin" fill="#B28B67" fill-rule="nonzero"></path>
                            <path d="M90.994098,7.37842275 L97.347965,5.71251967 C112.584398,18.0529557 121.169815,50.1519771 130.910168,53.6480708 C140.119277,56.953486 152.322469,51.9075826 166.772078,45.2717194 L172.229068,55.0340523 C159.953683,70.8186668 132.160486,85.67849 119.84131,79.6612357 C100.145507,70.040897 92.3082403,30.2108142 90.994098,7.37842275 Z" id="Coat-Back" fill="#69A1AC" transform="translate(131.611583, 43.370694) rotate(5.000000) translate(-131.611583, -43.370694) "></path>
                            <path d="M66.0599462,84.9936019 C92.0218213,84.9936019 111.118833,84.9936019 123.35098,84.9936019 C125.968888,84.9936019 125.475593,81.2297553 125.097159,79.3304976 C120.729568,57.4107674 103.680148,33.782359 103.680148,2.58017486 L87.1547174,0 C73.4860633,21.8883926 68.7592056,48.8374356 66.0599462,84.9936019 Z" id="Shirt" fill="#DDE3E9"></path>
                            <path d="M60.3457435,62.8007062 C48.6665812,83.7767267 38.8496132,98.8784566 30.8948396,108.105898 L18.8861559,105.763966 C26.6216038,57.9974513 49.0224284,22.742796 86.0886297,3.65856316e-14 L86.2772849,3.00945232e-14 L92.6318178,0 C107.467244,50.3527058 111.557109,83.9028123 104.901412,100.650318 L53.3305108,100.650318 C54.1464138,88.3959189 56.7625135,75.4364433 60.3457446,62.8007036 L60.3457435,62.8007062 Z" id="Coat-Front" fill="#89C5CC"></path>
                        </g>
                    </g>
                </g>
            </g>
        </g>
    </g>
</svg>